<svg width="120" height="34" viewBox="0 0 120 34" fill="none" xmlns="http://www.w3.org/2000/svg">
    <g clip-path="url(#clip0_1930_2941)">
        <path d="M5.33892 14.5102L5.66533 12.6423H13.3125L16.3201 9.52164H6.22488L6.52797 7.90436L14.5948 7.88158L18.0454 4.32812L2.84427 4.3509L0.349609 18.0181H12.8462L16.2734 14.5102H5.33892Z" fill="#172634"/>
        <path d="M43.5052 14.4871L45.347 4.35059H41.0338L38.5625 17.995H50.8959L54.3465 14.4871H43.5052Z" fill="#172634"/>
        <path d="M82.0447 12.5053H89.1323L88.7826 14.4871H83.5835C82.511 14.4871 81.6717 14.2137 81.0422 13.7354C80.4127 13.2342 80.063 12.4825 80.0863 11.7081C80.0863 11.0019 80.3194 10.3186 80.7391 9.74911C81.1821 9.15687 81.7649 8.7013 82.4177 8.40517C83.1405 8.0635 83.9332 7.90405 84.7492 7.90405H91.9068L95.3573 4.35059H85.402C83.7467 4.35059 82.3012 4.66949 80.809 5.33007C79.4568 5.89953 78.2677 6.83345 77.3818 7.99516C76.5191 9.13409 76.0762 10.5236 76.0762 11.9586C76.0762 13.052 76.3793 14.1226 76.9621 15.0565C77.5683 15.9677 78.4309 16.7194 79.4335 17.1749C80.1562 17.5166 80.8557 17.7444 81.5784 17.8583C82.2312 17.9722 83.6534 17.9722 83.6534 17.9722H92.373L93.8885 9.45299L85.0056 9.47577L82.0447 12.5053Z" fill="#172634"/>
        <path d="M102.77 14.5557C103.05 14.3963 112.795 7.85883 112.795 7.85883C113.238 7.60826 113.751 6.92491 113.751 6.24155C113.751 5.39874 113.191 4.4876 111.793 4.39648H99.4825L96.0086 7.97272C96.0086 7.97272 105.498 7.97272 105.987 7.97272C105.707 8.13217 95.892 14.6924 95.892 14.6924C95.2392 15.1708 95.1226 15.8541 95.1693 16.3552C95.2392 17.3347 96.265 18.132 97.2676 18.0864H109.484L112.912 14.5785" fill="#172634"/>
        <path d="M73.8837 7.24363C73.2775 6.33249 72.4149 5.5808 71.4124 5.12523C70.2466 4.57854 69.1742 4.3052 67.8686 4.32798C67.8686 4.32798 63.8818 4.32798 63.159 4.44187C62.1565 4.60132 61.2239 4.87466 60.2447 5.30745C58.8925 5.87692 57.7267 6.81084 56.8408 7.97255C56.0014 9.11148 55.5352 10.501 55.5352 11.936C55.5352 13.0294 55.8382 14.1 56.4211 15.0339C57.0273 15.9451 57.8899 16.6967 58.8925 17.1523C59.452 17.4029 59.9882 17.6307 60.5478 17.7446C62.5762 18.1546 66.6096 18.0407 67.8219 17.699C68.568 17.494 69.2908 17.289 70.0601 16.9701C71.4124 16.4006 72.5781 15.4667 73.4641 14.305C74.3034 13.1661 74.7697 11.7766 74.7697 10.3415C74.793 9.24815 74.4899 8.15478 73.8837 7.24363ZM70.1068 12.5738C69.6638 13.1661 69.0809 13.6216 68.4281 13.9178C67.7054 14.2594 66.9127 14.4417 66.0967 14.4417H63.0424C62.716 14.4417 62.413 14.4189 62.1099 14.3733C61.4571 14.2594 60.9208 14.0317 60.5012 13.69C59.8717 13.1888 59.5219 12.4372 59.5453 11.6627C59.5453 10.9565 59.7784 10.2732 60.1981 9.70372C60.641 9.11148 61.2472 8.70146 61.8767 8.35979C62.5062 8.01811 63.6953 7.85866 64.2082 7.85866C65.4672 7.8131 67.2391 7.83588 67.2391 7.83588C68.3115 7.83588 69.1509 8.10922 69.757 8.58757C70.3865 9.0887 70.7363 9.84039 70.7129 10.6149C70.7596 11.321 70.5264 12.0044 70.1068 12.5738Z" fill="#172634"/>
        <path d="M68.5682 21.4119C51.432 22.2091 29.8661 23.2569 25.0633 23.3708C22.4987 23.4392 20.0973 23.4847 21.8692 21.3891C23.9675 18.9062 35.1352 7.83583 37.0469 5.92243C38.4458 4.51016 37.863 3.62179 37.6298 3.37123C36.3475 2.02729 25.9959 4.87462 25.3664 3.14344C25.1565 2.5512 25.0866 0.979479 25.9959 0C25.1332 0.387236 22.6852 2.5512 22.0324 3.21178C21.4262 3.8268 20.9832 4.37349 20.6801 4.80628C19.561 6.42356 21.0299 7.06136 21.9391 7.03858C23.5012 6.99303 27.1383 6.26411 28.7936 6.0591C32.1509 5.67187 30.4023 7.24359 30.0293 7.56249C26.4621 10.3643 18.3021 16.7878 16.6234 18.0634C13.1728 20.683 8.67314 23.9403 7.34421 25.8537C5.2459 28.9516 6.94786 30.7283 10.0254 31.0928C17.7425 31.9811 50.3596 27.1293 108.623 20.4552C95.8229 20.5463 79.7359 20.9107 68.5682 21.4119Z" fill="url(#paint0_linear_1930_2941)"/>
        <path d="M4.966 13.9179L5.31572 12.05H12.9396L15.9472 8.92936L5.87527 8.95214L6.17836 7.31208L14.2452 7.2893L17.6957 3.73584L2.49466 3.75862L0 17.4258H12.4733L15.9238 13.9179H4.966Z" fill="url(#paint1_linear_1930_2941)"/>
        <path d="M43.1321 13.8948L44.974 3.7583H40.6841L38.1895 17.4027H50.5229L53.9734 13.8948H43.1321Z" fill="url(#paint2_linear_1930_2941)"/>
        <path d="M81.6716 11.913H88.7593L88.4096 13.8948H83.2104C82.1379 13.8948 81.2986 13.6214 80.6691 13.1431C80.0396 12.6419 79.6899 11.8903 79.7132 11.1158C79.7132 10.4096 79.9464 9.72629 80.366 9.15683C80.809 8.56458 81.3919 8.10901 82.0447 7.81289C82.7674 7.47121 83.5601 7.31176 84.3761 7.31176H91.5337L94.9843 3.7583H85.0289C83.3736 3.7583 81.9281 4.0772 80.436 4.73778C79.0837 5.30724 77.8947 6.24117 77.0087 7.40287C76.1461 8.5418 75.7031 9.9313 75.7031 11.3663C75.7031 12.4597 76.0062 13.5303 76.5891 14.4642C77.1953 15.3754 78.0579 16.1271 79.0604 16.5826C79.7832 16.9243 80.4826 17.1521 81.2054 17.266C81.8582 17.3799 83.2804 17.3799 83.2804 17.3799H92L93.5154 8.8607L84.6326 8.88348L81.6716 11.913Z" fill="url(#paint3_linear_1930_2941)"/>
        <path d="M102.42 13.9634C102.7 13.804 112.446 7.26654 112.446 7.26654C112.889 7.01598 113.401 6.33262 113.401 5.64926C113.401 4.80646 112.842 3.89531 111.443 3.8042H99.133L95.6824 7.35766C95.6824 7.35766 105.171 7.35766 105.661 7.35766C105.381 7.51711 95.5658 14.0773 95.5658 14.0773C94.913 14.5557 94.7965 15.239 94.8431 15.7402C94.913 16.7197 95.9389 17.5169 96.9414 17.4713H109.158L112.585 13.9634" fill="url(#paint4_linear_1930_2941)"/>
        <path d="M73.5341 6.65135C72.9279 5.74021 72.0653 4.98851 71.0627 4.53294C69.897 3.98625 68.8246 3.71291 67.5189 3.73569C67.5189 3.73569 63.5322 3.73569 62.8094 3.84958C61.8069 4.00903 60.8743 4.28238 59.8951 4.71517C58.5428 5.28463 57.3771 6.21856 56.4912 7.38027C55.6518 8.51919 55.1855 9.90869 55.1855 11.3437C55.1855 12.4371 55.4886 13.5077 56.0715 14.4416C56.6777 15.3528 57.5403 16.1045 58.5428 16.56C59.1024 16.8106 59.6386 17.0384 60.1982 17.1523C62.2265 17.5623 66.26 17.4484 67.4723 17.1067C68.2184 16.9017 68.9411 16.6967 69.7105 16.3778C71.0627 15.8083 72.2285 14.8744 73.1144 13.7127C73.9538 12.5738 74.42 11.1843 74.42 9.74924C74.4434 8.65587 74.117 7.58527 73.5341 6.65135ZM69.7571 11.9815C69.3142 12.5738 68.7313 13.0294 68.0785 13.3255C67.3557 13.6672 66.563 13.8494 65.747 13.8494H62.6928C62.3664 13.8494 62.0633 13.8266 61.7602 13.781C61.1074 13.6672 60.5712 13.4394 60.1515 13.0977C59.5221 12.5966 59.1723 11.8449 59.1956 11.0704C59.1956 10.3643 59.4288 9.6809 59.8485 9.11144C60.2914 8.51919 60.8976 8.10918 61.5271 7.7675C62.1566 7.42582 63.3456 7.26637 63.8586 7.26637C65.1175 7.22081 66.8894 7.24359 66.8894 7.24359C67.9619 7.24359 68.8012 7.51694 69.4074 7.99529C70.0369 8.49642 70.3866 9.24811 70.3633 10.0226C70.3866 10.7287 70.1768 11.4121 69.7571 11.9815Z" fill="url(#paint5_linear_1930_2941)"/>
        <path d="M22.9413 4.60103L22.5449 4.39602C23.1744 3.30265 24.0371 2.16372 24.0837 2.11816L24.4334 2.36873C24.4334 2.41429 23.5474 3.53044 22.9413 4.60103Z" fill="url(#paint6_linear_1930_2941)"/>
        <path d="M14.478 27.6074C13.6619 27.6074 13.0091 27.5846 12.5195 27.5163L12.5662 27.0835C13.0325 27.129 13.6619 27.1746 14.4546 27.1746C15.3872 27.1746 16.5529 27.129 17.9285 27.0607L17.9518 27.4935C16.5763 27.5846 15.4105 27.6074 14.478 27.6074ZM23.3841 27.129L23.3375 26.6962C25.156 26.5596 26.9979 26.3773 28.7231 26.2407L28.7698 26.6735C27.0445 26.8101 25.2026 26.9924 23.3841 27.129ZM34.1787 26.1951L34.1321 25.7623C35.4844 25.6484 37.3262 25.5117 39.5411 25.3523L39.5644 25.7851C37.3728 25.9445 35.531 26.0812 34.1787 26.1951ZM44.9734 25.3751L44.9501 24.9423L50.359 24.5323L50.3824 24.9651L44.9734 25.3751ZM55.768 24.555L55.7447 24.1223C57.4933 23.9856 59.2885 23.8489 61.1537 23.7122L61.177 24.145C59.3351 24.2817 57.5166 24.4184 55.768 24.555ZM13.9417 23.8261L13.6619 23.5072C14.3614 22.915 17.672 20.2043 17.8119 20.0904L18.115 20.4093C17.9518 20.5005 14.6178 23.2339 13.9417 23.8261ZM66.5627 23.7122L66.5393 23.2794C68.3112 23.1428 70.1298 23.0061 71.925 22.8694L71.9716 23.3022C70.1531 23.4389 68.3579 23.5756 66.5627 23.7122ZM77.3573 22.8694L77.3107 22.4366C79.2691 22.2772 81.0643 22.1405 82.6963 22.0266L82.7196 22.4594C81.1109 22.5733 79.3157 22.7328 77.3573 22.8694ZM88.1519 22.0494L88.1286 21.6166C90.2269 21.4572 91.9988 21.3433 93.5143 21.2294L93.5376 21.6622C92.0221 21.7761 90.2502 21.89 88.1519 22.0494ZM22.1484 16.8787L21.8687 16.5598C22.4748 16.0359 25.226 13.6897 25.9487 13.0746L26.2285 13.3935C25.5057 14.0086 22.7546 16.3548 22.1484 16.8787ZM30.3318 9.77174L30.0288 9.45284C32.0571 7.67611 33.3627 6.5144 34.0155 5.8766L34.342 6.17273C33.6891 6.81053 32.3835 7.99501 30.3318 9.77174ZM25.9254 5.30714L25.8788 4.87435C26.5316 4.82879 27.231 4.76045 27.9771 4.69212C29.0262 4.601 30.0987 4.48711 31.2644 4.396L31.3111 4.82879H31.2877C30.1453 4.9199 29.0495 5.01102 28.0237 5.12491C27.2776 5.19325 26.5782 5.26158 25.9254 5.30714Z" fill="url(#paint7_linear_1930_2941)"/>
    </g>
    <defs>
        <linearGradient id="paint0_linear_1930_2941" x1="20.5" y1="-8" x2="66.6074" y2="34.4691" gradientUnits="userSpaceOnUse">
            <stop stop-color="#DFEEF5"/>
            <stop offset="1" stop-color="#65658C"/>
            <stop offset="1" stop-color="#A4A3D4"/>
        </linearGradient>
        <linearGradient id="paint1_linear_1930_2941" x1="3" y1="9.00012" x2="118.744" y2="28.5712" gradientUnits="userSpaceOnUse">
            <stop offset="0.00290976" stop-color="#88D5FE"/>
            <stop offset="0.171516" stop-color="#3CB3F3"/>
            <stop offset="0.301096" stop-color="#3993C9"/>
            <stop offset="0.6576" stop-color="#BCE9FF"/>
            <stop offset="1" stop-color="#0361AB"/>
        </linearGradient>
        <linearGradient id="paint2_linear_1930_2941" x1="0.543254" y1="4.18463" x2="94.3806" y2="20.679" gradientUnits="userSpaceOnUse">
            <stop stop-color="#C1E9FF"/>
            <stop offset="0.378014" stop-color="#1B96DA"/>
            <stop offset="0.489492" stop-color="#8DD9FF"/>
            <stop offset="0.765066" stop-color="#007BDC"/>
        </linearGradient>
        <linearGradient id="paint3_linear_1930_2941" x1="1.14718" y1="-3.0394" x2="124.842" y2="18.895" gradientUnits="userSpaceOnUse">
            <stop offset="0.00290976" stop-color="#BEE9FF"/>
            <stop offset="0.00996055" stop-color="#4DABDE"/>
            <stop offset="0.0614722" stop-color="#3993C9"/>
            <stop offset="0.1141" stop-color="#2682BB"/>
            <stop offset="0.1675" stop-color="#1476B1"/>
            <stop offset="0.2224" stop-color="#0270AC"/>
            <stop offset="0.526042" stop-color="#0093E4"/>
            <stop offset="0.6576" stop-color="#B6E7FF"/>
            <stop offset="0.876021" stop-color="#067EDD"/>
        </linearGradient>
        <linearGradient id="paint4_linear_1930_2941" x1="1.30458" y1="-5.38643" x2="119.36" y2="13.8545" gradientUnits="userSpaceOnUse">
            <stop offset="0.00290976" stop-color="#4FAFE2"/>
            <stop offset="0.00996055" stop-color="#4DABDE"/>
            <stop offset="0.0614722" stop-color="#3993C9"/>
            <stop offset="0.1141" stop-color="#2682BB"/>
            <stop offset="0.1675" stop-color="#1476B1"/>
            <stop offset="0.2224" stop-color="#0270AC"/>
            <stop offset="0.2809" stop-color="#3DA5DF"/>
            <stop offset="0.733828" stop-color="#F3FBFF"/>
            <stop offset="1" stop-color="#1F99F9"/>
        </linearGradient>
        <linearGradient id="paint5_linear_1930_2941" x1="6" y1="7.4112e-07" x2="111.803" y2="27.2657" gradientUnits="userSpaceOnUse">
            <stop offset="0.471045" stop-color="#3AADF4"/>
            <stop offset="0.6576" stop-color="#BDE1F3"/>
            <stop offset="1" stop-color="#0783E6"/>
        </linearGradient>
        <linearGradient id="paint6_linear_1930_2941" x1="28.6856" y1="10.893" x2="5.15194" y2="-24.7563" gradientUnits="userSpaceOnUse">
            <stop stop-color="white"/>
            <stop offset="1" stop-color="white" stop-opacity="0"/>
        </linearGradient>
        <linearGradient id="paint7_linear_1930_2941" x1="38.9917" y1="4.08935" x2="15.458" y2="-31.5599" gradientUnits="userSpaceOnUse">
            <stop stop-color="white"/>
            <stop offset="1" stop-color="white" stop-opacity="0"/>
        </linearGradient>
        <clipPath id="clip0_1930_2941">
            <rect width="120" height="34" fill="white"/>
        </clipPath>
    </defs>
</svg>
