<svg width="259" height="36" viewBox="0 0 259 36" fill="none" xmlns="http://www.w3.org/2000/svg">
<g clip-path="url(#clip0_135_136)">
<path d="M62.1139 35.9772C58.0044 35.9772 54.7213 35.0366 52.2648 33.1555C49.8233 31.2743 48.5496 28.5057 48.4434 24.8496H55.381C55.5023 26.5487 56.1695 27.8305 57.3827 28.6953C58.6109 29.5448 60.1577 29.9696 62.023 29.9696C63.8426 29.9696 65.2984 29.5827 66.3903 28.8091C67.4972 28.0353 68.0507 27.0266 68.0507 25.7825C68.0507 24.6447 67.5502 23.7724 66.5495 23.1655C65.5486 22.5436 64.1232 22.0126 62.2732 21.5727L58.5654 20.6624C55.7146 19.9798 53.4627 18.895 51.8098 17.4083C50.1721 15.9064 49.3532 13.9038 49.3532 11.4007C49.3532 9.35267 49.9067 7.56253 51.0137 6.0303C52.1207 4.48289 53.6371 3.28441 55.563 2.43485C57.504 1.57012 59.7104 1.13776 62.1822 1.13776C64.6994 1.13776 66.8983 1.57012 68.7786 2.43485C70.659 3.29958 72.1223 4.49806 73.1686 6.0303C74.2301 7.56253 74.7761 9.32992 74.8064 11.3325H67.8914C67.7701 10.0126 67.209 8.981 66.2083 8.23763C65.2074 7.49426 63.8502 7.12259 62.1367 7.12259C60.3928 7.12259 59.0507 7.48668 58.1105 8.21487C57.1704 8.9279 56.7003 9.83812 56.7003 10.9456C56.7003 12.1441 57.2235 13.0543 58.2697 13.6763C59.3161 14.2831 60.5747 14.761 62.0457 15.11L65.0709 15.8609C67.0423 16.3008 68.7937 16.9456 70.3254 17.7952C71.8569 18.6295 73.0625 19.7067 73.942 21.0265C74.8215 22.3312 75.2613 23.9241 75.2613 25.8053C75.2613 28.9153 74.1012 31.3881 71.7811 33.2237C69.461 35.0594 66.2386 35.9772 62.1139 35.9772Z" fill="#303030"/>
<path d="M85.8056 35.9773C83.3794 35.9773 81.3625 35.3477 79.7551 34.0885C78.1629 32.8142 77.3667 30.9179 77.3667 28.3996C77.3667 26.5032 77.8065 25.0164 78.6861 23.9394C79.5807 22.847 80.7559 22.0506 82.2117 21.55C83.6675 21.0342 85.2294 20.7004 86.8975 20.5487C89.1114 20.3364 90.6885 20.1164 91.6287 19.8888C92.5841 19.6461 93.0618 19.1151 93.0618 18.2958V18.1821C93.0618 17.1353 92.7281 16.3237 92.0609 15.7473C91.3937 15.1707 90.4307 14.8825 89.172 14.8825C87.9135 14.8825 86.8823 15.1556 86.0786 15.7017C85.29 16.2478 84.7668 16.9457 84.509 17.7953L78.0946 16.7712C78.7012 14.5563 79.9749 12.8345 81.916 11.6056C83.8722 10.3616 86.2985 9.73962 89.1948 9.73962C91.0752 9.73962 92.8419 10.0354 94.4947 10.6271C96.1629 11.2188 97.5126 12.1517 98.5432 13.4261C99.5748 14.6853 100.091 16.3237 100.091 18.3414V35.4994H93.4256V31.9495H93.221C92.5992 33.148 91.6742 34.1189 90.4459 34.8623C89.2327 35.6056 87.686 35.9773 85.8056 35.9773ZM84.077 28.172C84.077 29.143 84.4256 29.8787 85.1232 30.3793C85.8359 30.8648 86.7307 31.1075 87.8073 31.1075C89.354 31.1075 90.6203 30.66 91.606 29.7649C92.6068 28.8699 93.1073 27.7548 93.1073 26.4198V23.7118C92.8343 23.8939 92.4021 24.0608 91.8107 24.2125C91.2344 24.3642 90.6203 24.4931 89.9682 24.5993C89.3161 24.6904 88.7323 24.7738 88.2168 24.8496C86.9733 25.0316 85.9724 25.3881 85.2142 25.9191C84.456 26.435 84.077 27.1859 84.077 28.172Z" fill="#303030"/>
<path d="M106.017 35.4993V15.383H102.446V10.0582H106.017V8.21492C106.017 5.46903 106.805 3.4134 108.383 2.04804C109.975 0.68268 111.961 0 114.342 0C115.434 0 116.427 0.0910241 117.322 0.273072C118.232 0.439949 118.899 0.584071 119.324 0.705436L118.073 5.98483C117.8 5.90898 117.467 5.83312 117.071 5.75727C116.677 5.68142 116.26 5.64349 115.82 5.64349C114.79 5.64349 114.062 5.88622 113.638 6.37169C113.227 6.84198 113.023 7.50949 113.023 8.37421V10.0582H118.095V15.383H113.023V35.4993H106.017Z" fill="#303030"/>
<path d="M132.598 36.0001C129.989 36.0001 127.745 35.4691 125.864 34.4071C123.984 33.3452 122.536 31.8357 121.52 29.8787C120.504 27.9065 119.996 25.5778 119.996 22.8926C119.996 20.2833 120.496 17.9925 121.498 16.0202C122.513 14.0481 123.939 12.5083 125.774 11.4008C127.608 10.2934 129.769 9.73962 132.256 9.73962C134.5 9.73962 136.525 10.2175 138.329 11.1733C140.149 12.129 141.59 13.5627 142.651 15.4742C143.728 17.3857 144.266 19.7826 144.266 22.665V24.5766H126.934C127.01 26.5032 127.57 28.0127 128.617 29.105C129.663 30.1973 131.028 30.7434 132.711 30.7434C133.879 30.7434 134.879 30.4931 135.713 29.9924C136.562 29.4918 137.169 28.7637 137.533 27.8079L144.039 28.2403C143.538 30.5765 142.287 32.4577 140.286 33.8837C138.299 35.2946 135.736 36.0001 132.598 36.0001ZM126.979 20.2302H137.51C137.344 18.622 136.828 17.3477 135.964 16.4071C135.1 15.4666 133.887 14.9963 132.324 14.9963C130.747 14.9963 129.496 15.4893 128.571 16.4754C127.661 17.4463 127.13 18.6979 126.979 20.2302Z" fill="#303030"/>
<path d="M157.075 35.4994V1.59302H164.218V29.5829H178.753V35.4994H157.075Z" fill="#303030"/>
<path d="M189.274 35.9773C186.848 35.9773 184.831 35.3477 183.224 34.0885C181.631 32.8142 180.835 30.9179 180.835 28.3996C180.835 26.5032 181.275 25.0164 182.155 23.9394C183.049 22.847 184.224 22.0506 185.68 21.55C187.136 21.0342 188.698 20.7004 190.366 20.5487C192.58 20.3364 194.157 20.1164 195.097 19.8888C196.053 19.6461 196.531 19.1151 196.531 18.2958V18.1821C196.531 17.1353 196.196 16.3237 195.53 15.7473C194.862 15.1707 193.9 14.8825 192.641 14.8825C191.383 14.8825 190.351 15.1556 189.547 15.7017C188.759 16.2478 188.236 16.9457 187.978 17.7953L181.564 16.7712C182.17 14.5563 183.444 12.8345 185.385 11.6056C187.341 10.3616 189.767 9.73962 192.664 9.73962C194.544 9.73962 196.31 10.0354 197.963 10.6271C199.631 11.2188 200.981 12.1517 202.013 13.4261C203.043 14.6853 203.559 16.3237 203.559 18.3414V35.4994H196.895V31.9495H196.689C196.068 33.148 195.143 34.1189 193.915 34.8623C192.701 35.6056 191.155 35.9773 189.274 35.9773ZM187.546 28.172C187.546 29.143 187.895 29.8787 188.592 30.3793C189.304 30.8648 190.199 31.1075 191.276 31.1075C192.823 31.1075 194.089 30.66 195.075 29.7649C196.076 28.8699 196.575 27.7548 196.575 26.4198V23.7118C196.303 23.8939 195.871 24.0608 195.279 24.2125C194.703 24.3642 194.089 24.4931 193.437 24.5993C192.785 24.6904 192.201 24.7738 191.686 24.8496C190.442 25.0316 189.441 25.3881 188.683 25.9191C187.925 26.435 187.546 27.1859 187.546 28.172Z" fill="#303030"/>
<path d="M214.876 20.799V35.4994H207.825V10.0582H214.762V14.5866H215.013C215.589 13.1 216.506 11.9242 217.765 11.0595C219.023 10.1796 220.594 9.73962 222.473 9.73962C225.127 9.73962 227.25 10.5968 228.842 12.311C230.45 14.0101 231.254 16.3464 231.254 19.3199V35.4994H224.202V20.5714C224.202 19.0089 223.8 17.7877 222.997 16.9078C222.208 16.0278 221.109 15.588 219.699 15.588C218.273 15.588 217.113 16.0506 216.218 16.976C215.324 17.8863 214.876 19.1606 214.876 20.799Z" fill="#303030"/>
<path d="M247.075 36.0001C244.466 36.0001 242.223 35.4691 240.342 34.4071C238.461 33.3452 237.014 31.8357 235.997 29.8787C234.982 27.9065 234.474 25.5778 234.474 22.8926C234.474 20.2833 234.974 17.9925 235.975 16.0202C236.991 14.0481 238.417 12.5083 240.251 11.4008C242.086 10.2934 244.247 9.73962 246.734 9.73962C248.978 9.73962 251.003 10.2175 252.807 11.1733C254.627 12.129 256.067 13.5627 257.129 15.4742C258.205 17.3857 258.744 19.7826 258.744 22.665V24.5766H241.412C241.487 26.5032 242.048 28.0127 243.095 29.105C244.141 30.1973 245.506 30.7434 247.189 30.7434C248.356 30.7434 249.357 30.4931 250.191 29.9924C251.041 29.4918 251.648 28.7637 252.011 27.8079L258.517 28.2403C258.016 30.5765 256.765 32.4577 254.763 33.8837C252.777 35.2946 250.214 36.0001 247.075 36.0001ZM241.456 20.2302H251.988C251.821 18.622 251.306 17.3477 250.441 16.4071C249.577 15.4666 248.364 14.9963 246.802 14.9963C245.225 14.9963 243.974 15.4893 243.049 16.4754C242.139 17.4463 241.608 18.6979 241.456 20.2302Z" fill="#303030"/>
<path d="M29.066 25.7415H0V35.5251H29.066V25.7415Z" fill="#60A9CE"/>
<path d="M29.066 1.51978V11.2905C23.8428 11.2905 19.4309 15.6912 19.4309 20.8971H9.63508C9.63508 15.6912 5.2231 11.2905 0 11.2905V1.51978C5.77558 1.51978 10.9713 4.04453 14.533 8.05053C18.0947 4.04453 23.2904 1.51978 29.066 1.51978Z" fill="#60A9CE"/>
</g>
<defs>
<clipPath id="clip0_135_136">
<rect width="258.744" height="36" fill="white"/>
</clipPath>
</defs>
</svg>
