<svg width="70" height="446" viewBox="0 0 70 446" fill="none" xmlns="http://www.w3.org/2000/svg">
<path d="M3 445.494C3 425.246 66.8301 425.246 66.8301 404.998C66.8301 384.75 3 384.75 3 364.502C3 344.253 66.8301 344.253 66.8301 323.999C66.8301 303.751 3 303.751 3 283.503C3 263.255 66.8301 263.255 66.8301 243.001C66.8301 222.753 3 222.753 3 202.505C3 182.257 66.8301 182.257 66.8301 162.008C66.8301 141.76 3 141.76 3 121.506C3 101.258 66.8301 101.258 66.8301 81.0041C66.8301 60.7501 3 60.7501 3 40.502C3.00001 20.2479 66.8301 20.2479 66.8301 -0.000182344" stroke="url(#paint0_radial)" stroke-width="6" stroke-miterlimit="10"/>
<path d="M3 445.494C3 425.246 66.8301 425.246 66.8301 404.998C66.8301 384.75 3 384.75 3 364.502C3 344.253 66.8301 344.253 66.8301 323.999C66.8301 303.751 3 303.751 3 283.503C3 263.255 66.8301 263.255 66.8301 243.001C66.8301 222.753 3 222.753 3 202.505C3 182.257 66.8301 182.257 66.8301 162.008C66.8301 141.76 3 141.76 3 121.506C3 101.258 66.8301 101.258 66.8301 81.0041C66.8301 60.7501 3 60.7501 3 40.502C3.00001 20.2479 66.8301 20.2479 66.8301 -0.000182344" stroke="url(#paint1_linear)" stroke-width="6" stroke-miterlimit="10"/>
<defs>
<radialGradient id="paint0_radial" cx="0" cy="0" r="1" gradientUnits="userSpaceOnUse" gradientTransform="translate(35.0401 146.566) rotate(-90) scale(207.92 1451.15)">
<stop stop-color="white"/>
<stop offset="1" stop-color="white" stop-opacity="0"/>
</radialGradient>
<linearGradient id="paint1_linear" x1="35.04" y1="479.63" x2="35.04" y2="-186.498" gradientUnits="userSpaceOnUse">
<stop stop-color="#0384FB"/>
<stop offset="1" stop-color="#3FA3FF" stop-opacity="0.73"/>
</linearGradient>
</defs>
</svg>
