<svg xmlns="http://www.w3.org/2000/svg" width="248" height="62" viewBox="0 0 248 62" fill="none"><path fill-rule="evenodd" clip-rule="evenodd" d="M64.2459 29.4246C60.5357 28.4172 58.9735 27.8128 58.9735 25.5965C58.9735 23.9846 60.3404 22.7757 62.7814 22.7757C65.3199 22.7757 66.7845 23.8839 67.9562 25.395L70.9829 22.7757C69.0302 20.1565 66.4916 18.7461 62.6837 18.7461C57.8995 18.7461 54.7751 21.5668 54.7751 25.6972C54.7751 30.1298 57.6066 32.0449 62.3908 33.3535C66.5892 34.5634 68.2491 35.4691 68.2491 37.6854C68.2491 39.7002 66.4916 41.0098 63.3672 41.0098C60.1451 41.0098 57.7042 39.4987 56.2396 36.9802L53.0176 39.2972C55.2632 42.8231 58.7782 44.9387 63.3672 44.9387C69.1278 44.9387 72.5451 42.119 72.5451 37.3831C72.6428 32.9505 69.4207 30.835 64.2459 29.4246" fill="#00263E"></path><path fill-rule="evenodd" clip-rule="evenodd" d="M89.7295 41.0093C84.9452 41.0093 81.8208 37.2819 81.8208 32.0444C81.8208 26.7041 84.9452 22.9767 89.7295 22.9767C94.4161 22.9767 97.5405 26.7041 97.5405 32.0444C97.5405 37.2819 94.4161 41.0093 89.7295 41.0093V41.0093ZM97.3448 23.7828C95.685 20.6599 92.7558 18.9473 88.8503 18.9473C82.1133 18.9473 77.0361 24.5887 77.0361 32.0446C77.0361 39.4984 82.1133 45.1409 88.8503 45.1409C92.8535 45.1409 95.685 43.4273 97.3448 40.3043V44.5354H101.836V19.451H97.3448V23.7828Z" fill="#00263E"></path><path fill-rule="evenodd" clip-rule="evenodd" d="M136.887 18.8457C132.982 18.8457 130.248 20.3568 128.393 23.4798C126.928 20.3568 124.39 18.8457 121.07 18.8457C117.75 18.8457 115.212 20.2561 113.845 22.8753V19.4501H109.354V44.4339H113.845V30.1287C113.845 25.5953 116.091 23.0768 120.094 23.0768C123.511 23.0768 125.269 25.1924 125.269 29.1213V44.4339H129.76V29.9272C129.76 25.4946 132.005 22.9761 136.01 22.9761C139.427 22.9761 141.183 24.9909 141.183 28.9198V44.3331H145.675V28.5168C145.577 22.4724 141.965 18.8457 136.887 18.8457" fill="#00263E"></path><path fill-rule="evenodd" clip-rule="evenodd" d="M161.786 29.4246C158.076 28.4172 156.514 27.8128 156.514 25.5965C156.514 23.9846 157.88 22.7757 160.321 22.7757C162.861 22.7757 164.326 23.8839 165.496 25.395L168.523 22.7757C166.57 20.1565 164.032 18.7461 160.224 18.7461C155.44 18.7461 152.315 21.5668 152.315 25.6972C152.315 30.1298 155.147 32.0449 159.932 33.3535C164.129 34.5634 165.79 35.4691 165.79 37.6854C165.79 39.7002 164.032 41.0098 160.908 41.0098C157.685 41.0098 155.244 39.4987 153.78 36.9802L150.558 39.2972C152.803 42.8231 156.318 44.9387 160.908 44.9387C166.668 44.9387 170.085 42.119 170.085 37.3831C170.184 32.9505 166.961 30.835 161.786 29.4246" fill="#00263E"></path><path fill-rule="evenodd" clip-rule="evenodd" d="M187.171 41.0091C182.387 41.0091 179.262 37.2817 179.262 32.0442C179.262 26.704 182.387 22.9765 187.171 22.9765C191.857 22.9765 194.982 26.704 194.982 32.0442C194.982 37.2817 191.955 41.0091 187.171 41.0091V41.0091ZM194.884 23.7828C193.224 20.6599 190.295 18.9473 186.389 18.9473C179.652 18.9473 174.576 24.5887 174.576 32.0446C174.576 39.4984 179.652 45.1409 186.389 45.1409C190.393 45.1409 193.224 43.4273 194.884 40.3043V44.5354H199.375V19.451H194.884V23.7828Z" fill="#00263E"></path><path fill-rule="evenodd" clip-rule="evenodd" d="M235.697 41.008C230.913 41.008 227.788 37.2806 227.788 32.0431C227.788 26.7029 230.913 22.9754 235.697 22.9754C240.384 22.9754 243.508 26.7029 243.508 32.0431C243.508 37.2806 240.384 41.008 235.697 41.008V41.008ZM243.313 19.4501V23.6813C241.653 20.5583 238.724 18.8457 234.818 18.8457C228.081 18.8457 223.004 24.4872 223.004 31.942C223.004 39.3968 228.081 45.0383 234.818 45.0383C238.821 45.0383 241.653 43.3257 243.313 40.2027V44.4339H247.804V19.4501H243.313Z" fill="#00263E"></path><path fill-rule="evenodd" clip-rule="evenodd" d="M218.318 18.8457L211.288 25.2931V19.4501H206.895V44.4339H211.288V31.4383L221.247 22.3716L218.318 18.8457Z" fill="#00263E"></path><path fill-rule="evenodd" clip-rule="evenodd" d="M32.3186 19.755C31.8304 20.9639 31.0493 21.8706 29.9753 22.475C29.0966 23.0794 28.0226 23.3817 26.9485 23.3817C26.4604 23.3817 26.0698 22.9787 26.0698 22.5757C26.0698 22.072 26.4604 21.6691 26.8509 21.6691C27.632 21.6691 28.3155 21.3669 28.9989 20.9639C29.78 20.4602 30.2682 19.8557 30.6588 18.9491C30.8541 18.4454 30.8541 17.8409 30.5611 17.438C30.2682 16.9343 29.78 16.7328 29.2918 16.632C28.1202 16.5313 27.2415 16.9343 26.4604 17.6394C25.2887 18.8483 24.8005 21.0646 24.6052 21.9713C24.41 22.7772 22.4572 31.3402 21.6761 34.8661C21.5785 35.3698 21.0903 35.7718 20.5044 35.7718C19.9186 35.7718 19.5281 35.3698 19.3328 34.8661L19.0399 33.5565C18.1611 29.6276 16.5013 22.6765 16.4037 21.9713C16.2084 21.0646 15.7202 18.8483 14.5485 17.6394C13.8651 16.9343 12.8887 16.5313 11.717 16.632C11.2289 16.632 10.7407 16.9343 10.4478 17.438C10.1548 17.9417 10.1548 18.4454 10.3501 18.9491C10.7407 19.755 11.3265 20.4602 12.01 20.9639C12.6934 21.3669 13.3769 21.5683 14.158 21.6691C14.6462 21.6691 14.9391 22.072 14.9391 22.5757C14.9391 23.0794 14.5485 23.3817 14.0604 23.3817C12.9863 23.3817 12.01 22.9787 11.0336 22.475C10.0572 21.7698 9.2761 20.8632 8.69027 19.755C8.29972 18.7476 8.29972 17.5387 8.88555 16.632C9.47138 15.7254 10.4478 15.1209 11.4241 15.0202C12.9863 14.9194 14.4509 15.4232 15.5249 16.5313C17.0871 18.1432 17.5753 20.6617 17.8682 21.6691C18.0635 22.3743 19.4304 28.4187 20.3092 32.4483C21.1879 28.4187 22.6525 22.3743 22.7501 21.6691C22.9454 20.5609 23.5312 18.0424 25.0934 16.5313C26.1674 15.4232 27.5344 14.9194 29.1942 15.0202C30.2682 15.1209 31.2446 15.7254 31.7328 16.632C32.7092 17.5387 32.7092 18.7476 32.3186 19.755M24.8985 6.1543C23.8245 6.1543 22.6529 6.35578 21.4812 6.75874C20.993 6.96022 20.4072 6.96022 19.919 6.75874C18.7473 6.35578 17.6733 6.1543 16.5017 6.1543C10.0576 6.1543 4.6875 12.8032 4.6875 20.5602C4.6875 29.2239 11.1316 36.981 20.4072 39.297H20.993C30.2686 36.981 36.7127 29.3247 36.7127 20.5602C36.7127 12.7024 31.245 6.1543 24.8985 6.1543" fill="#00263E"></path><path fill-rule="evenodd" clip-rule="evenodd" d="M21.3824 40.9108C21.1871 41.0116 20.8942 41.0116 20.6989 41.0116C20.5036 41.0116 20.2107 41.0116 20.0154 40.9108C10.0564 38.4931 3.02645 30.1316 3.02645 20.5612C3.02645 11.7968 9.17763 4.44269 16.5005 4.44269C17.7698 4.44269 19.1367 4.64418 20.406 5.14788C20.6012 5.24862 20.7965 5.24862 20.8942 5.14788C22.1635 4.74492 23.5304 4.44269 24.7997 4.44269C32.1225 4.44269 38.2737 11.7968 38.2737 20.5612C38.3713 30.1316 31.3414 38.4931 21.3824 40.9108V40.9108ZM37.3949 38.5934C37.3949 39.0971 37.0044 39.5 36.5162 39.5C36.028 39.5 35.6374 39.0971 35.6374 38.5934V37.3845C35.6374 36.8808 36.028 36.4778 36.5162 36.4778C37.0044 36.4778 37.3949 36.8808 37.3949 37.3845V38.5934ZM37.3949 44.0327C37.3949 44.5364 37.0044 44.9394 36.5162 44.9394C36.028 44.9394 35.6374 44.5364 35.6374 44.0327V42.8228C35.6374 42.3191 36.028 41.9172 36.5162 41.9172C37.0044 41.9172 37.3949 42.3191 37.3949 42.8228V44.0327ZM32.1224 46.7542C32.1224 47.2579 31.7319 47.6609 31.2437 47.6609C30.7555 47.6609 30.3649 47.2579 30.3649 46.7542V45.5453C30.3649 45.0416 30.7555 44.6386 31.2437 44.6386C31.7319 44.6386 32.1224 45.0416 32.1224 45.5453V46.7542ZM32.1224 52.1936C32.1224 52.6973 31.7319 53.1002 31.2437 53.1002C30.7555 53.1002 30.3649 52.6973 30.3649 52.1936V50.9847C30.3649 50.481 30.7555 50.078 31.2437 50.078C31.7319 50.078 32.1224 50.481 32.1224 50.9847V52.1936ZM26.8508 49.4731C26.8508 49.9768 26.4602 50.3787 25.9721 50.3787C25.4839 50.3787 25.0933 49.9768 25.0933 49.4731V48.2642C25.0933 47.7605 25.4839 47.3565 25.9721 47.3565C26.4602 47.3565 26.8508 47.7605 26.8508 48.2642V49.4731ZM26.8508 54.9122C26.8508 55.4159 26.4602 55.8199 25.9721 55.8199C25.4839 55.8199 25.0933 55.4159 25.0933 54.9122V53.7043C25.0933 53.2006 25.4839 52.7977 25.9721 52.7977C26.4602 52.7977 26.8508 53.2006 26.8508 53.7043V54.9122ZM21.4805 46.7542C21.4805 47.2579 21.09 47.6609 20.6018 47.6609C20.1136 47.6609 19.723 47.2579 19.723 46.7542V45.5453C19.723 45.0416 20.1136 44.6386 20.6018 44.6386C21.09 44.6386 21.4805 45.0416 21.4805 45.5453V46.7542ZM21.4805 52.1936C21.4805 52.6973 21.09 53.1002 20.6018 53.1002C20.1136 53.1002 19.723 52.6973 19.723 52.1936V50.9847C19.723 50.481 20.1136 50.078 20.6018 50.078C21.09 50.078 21.4805 50.481 21.4805 50.9847V52.1936ZM16.208 49.4731C16.208 49.9768 15.8175 50.3787 15.3293 50.3787C14.8411 50.3787 14.4505 49.9768 14.4505 49.4731V48.2642C14.4505 47.7605 14.8411 47.3565 15.3293 47.3565C15.8175 47.3565 16.208 47.7605 16.208 48.2642V49.4731ZM16.208 54.9122C16.208 55.4159 15.8175 55.8199 15.3293 55.8199C14.8411 55.8199 14.4505 55.4159 14.4505 54.9122V53.7043C14.4505 53.2006 14.8411 52.7977 15.3293 52.7977C15.8175 52.7977 16.208 53.2006 16.208 53.7043V54.9122ZM10.9355 46.7542C10.9355 47.2579 10.5449 47.6609 10.0567 47.6609C9.56856 47.6609 9.17801 47.2579 9.17801 46.7542V45.5453C9.17801 45.0416 9.56856 44.6386 10.0567 44.6386C10.5449 44.6386 10.9355 45.0416 10.9355 45.5453V46.7542ZM10.9355 52.1936C10.9355 52.6973 10.5449 53.1002 10.0567 53.1002C9.56856 53.1002 9.17801 52.6973 9.17801 52.1936V50.9847C9.17801 50.481 9.56856 50.078 10.0567 50.078C10.5449 50.078 10.9355 50.481 10.9355 50.9847V52.1936ZM5.66298 38.5934C5.66298 39.0971 5.27243 39.5 4.78424 39.5C4.29605 39.5 3.9055 39.0971 3.9055 38.5934V37.3845C3.9055 36.8808 4.29605 36.4778 4.78424 36.4778C5.27243 36.4778 5.66298 36.8808 5.66298 37.3845V38.5934ZM5.66298 44.0327C5.66298 44.5364 5.27243 44.9394 4.78424 44.9394C4.29605 44.9394 3.9055 44.5364 3.9055 44.0327V42.8228C3.9055 42.3191 4.29605 41.9172 4.78424 41.9172C5.27243 41.9172 5.66298 42.3191 5.66298 42.8228V44.0327ZM20.6992 0.00976562V0.00976562C9.27559 0.00976562 0 9.58014 0 21.3668V39.8014C0 51.589 9.27559 61.1594 20.6992 61.1594C32.1228 61.1594 41.3984 51.589 41.3984 39.8014V21.3668C41.3984 9.58014 32.1228 0.00976562 20.6992 0.00976562V0.00976562Z" fill="#00263E"></path></svg>